# xmcd
#
# Track frame offsets: 
#        150
#        23400
#        49978
#        65290
#        85385
#        118998
#        132598
#
# Disc length: 2079 seconds
#
# Revision: 0
# Processed by: cddbd v1.5.2PL0 Copyright (c) Steve Scherf et al.
# Submitted via: ExactAudioCopy v0.99pb5
#
DISCID=5f081d07
DTITLE=Stan Getz  - At Storyville Vol. 2 ( 1953 )  FLAC
DYEAR=1900
DGENRE=
TTITLE0=Pennies From Heaven
TTITLE1=Signal
TTITLE2=Everything Happens To Me
TTITLE3=Rubberneck
TTITLE4=Jumping With Symphony Sid
TTITLE5=Yesterdays
TTITLE6=Budo
EXTD=
EXTT0=
EXTT1=
EXTT2=
EXTT3=
EXTT4=
EXTT5=
EXTT6=
PLAYORDER=
